<?xml version="1.0" encoding="UTF-8"?>
<svg width="161px" height="57px" viewBox="0 0 161 57" version="1.1" xmlns="http://www.w3.org/2000/svg" xmlns:xlink="http://www.w3.org/1999/xlink">
    <!-- Generator: Sketch 51.2 (57519) - http://www.bohemiancoding.com/sketch -->
    <title>appstore</title>
    <desc>Created with Sketch.</desc>
    <defs></defs>
    <g id="desktop" stroke="none" stroke-width="1" fill="none" fill-rule="evenodd">
        <g id="teaser-desktop-#1" transform="translate(-640.000000, -2350.000000)" fill="#005276">
            <g id="foot" transform="translate(0.000000, 2142.000000)">
                <g id="on" transform="translate(640.000000, 208.000000)">
                    <path d="M144.009558,15.0840808 C142.940348,15.0840808 142.490681,16.0499634 142.420733,16.750253 L145.429509,16.750253 C145.443498,16.1195944 145.161707,15.0840808 144.009558,15.0840808 Z M76.7492723,18.8212802 C76.7492723,19.4927228 77.1859495,19.801089 77.7325455,19.801089 C78.4370248,19.801089 78.9286614,19.3534606 79.0975366,18.8630589 C79.1395056,18.7377229 79.1395056,18.6113923 79.1395056,18.4850616 L79.1395056,17.5480262 C77.9164096,17.5341 76.7492723,17.7857666 76.7492723,18.8212802 Z M110.027675,15.1537119 C108.80358,15.1537119 108.311943,16.3434086 108.311943,17.4774004 C108.311943,18.7934278 108.972455,19.7871628 110.013686,19.7871628 C110.996959,19.7871628 111.686449,18.8352065 111.686449,17.449548 C111.686449,16.386182 111.207803,15.1537119 110.027675,15.1537119 Z M98.4092627,15.0840808 C97.3410523,15.0840808 96.8903854,16.0499634 96.8204371,16.750253 L99.8292132,16.750253 C99.8422036,16.1195944 99.5614111,15.0840808 98.4092627,15.0840808 Z M85.9614633,15.2521902 C85.2589825,15.2521902 84.6114611,15.7565181 84.4295955,16.5115179 C84.3996177,16.6378486 84.3716384,16.791037 84.3716384,16.960141 L84.3716384,18.0652857 C84.3716384,18.2055426 84.3866273,18.3457994 84.4146066,18.4721301 C84.5974714,19.1704304 85.2020246,19.6747583 85.9464743,19.6747583 C87.0296737,19.6747583 87.6901855,18.8212802 87.6901855,17.4366165 C87.6901855,16.2319989 87.1136117,15.2521902 85.9614633,15.2521902 Z M147.016336,37.5112562 L138.152887,37.5112562 C138.187861,38.8173362 138.616544,39.8120659 139.439936,40.5004188 C140.185385,41.1191407 141.150671,41.4285016 142.337794,41.4285016 C143.652822,41.4285016 144.843941,41.2206031 145.921145,40.7968483 L146.385802,42.8420125 C145.132728,43.3901085 143.642829,43.6566961 141.925099,43.6566961 C139.868619,43.6566961 138.249815,43.0568741 137.073685,41.850267 C135.898553,40.6436599 135.305991,39.0232453 135.305991,36.9920073 C135.305991,34.9916059 135.855585,33.3343862 136.946778,32.0034379 C138.100925,30.5889323 139.65078,29.8826743 141.59834,29.8826743 C143.518921,29.8826743 144.966851,30.5889323 145.948125,32.0034379 C146.729548,33.1324561 147.124256,34.5220935 147.124256,36.1753342 C147.124256,36.6975673 147.086284,37.1422114 147.016336,37.5112562 Z M134.824347,16.791037 L134.824347,20.8783812 L133.096624,20.8783812 L133.096624,10.9420265 L134.824347,10.9420265 L134.824347,14.9865973 L134.853326,14.9865973 C135.063171,14.6652996 135.358952,14.3987121 135.710692,14.2166766 C136.061433,14.0207148 136.470131,13.9083104 136.905809,13.9083104 C138.072946,13.9083104 139.297041,14.6782311 139.297041,16.8616628 L139.297041,20.8783812 L137.566321,20.8783812 L137.566321,17.0436983 C137.566321,16.0638896 137.200591,15.307895 136.245297,15.307895 C135.569796,15.307895 135.092149,15.7565181 134.896294,16.2737775 C134.839336,16.4279606 134.824347,16.6099962 134.824347,16.791037 Z M134.376678,32.7673903 C134.085893,32.7146696 133.772125,32.6927856 133.446366,32.6927856 C132.407134,32.6927856 131.606725,33.0827196 131.040144,33.8605982 C130.546509,34.5529301 130.30169,35.4113818 130.30169,36.4717636 L130.30169,43.4149768 L127.347873,43.4149768 L127.347873,34.3440369 C127.347873,32.8270741 127.320893,31.4384315 127.268932,30.1810932 L129.839032,30.1810932 L129.948951,32.7146696 L130.029891,32.7146696 C130.338663,31.8462706 130.828301,31.1449862 131.506799,30.6227531 C132.163314,30.1452829 132.877786,29.9164951 133.64322,29.9164951 C133.91402,29.9164951 134.161837,29.9304213 134.376678,29.9652368 L134.376678,32.7673903 Z M126.794282,14.0624935 L127.764565,14.0624935 L127.764565,12.7882447 L129.466308,12.312764 L129.466308,14.0624935 L131.110093,14.0624935 L131.110093,15.3496737 L129.466308,15.3496737 L129.466308,18.3587309 C129.466308,19.1992775 129.691141,19.6190534 130.351653,19.6190534 C130.660425,19.6190534 130.8293,19.6041325 131.026155,19.5494224 L131.055133,20.8505288 C130.801321,20.9480123 130.337663,21.0325643 129.804058,21.0325643 C129.156536,21.0325643 128.635921,20.8226763 128.31316,20.4725315 C127.933441,20.080608 127.764565,19.4509441 127.764565,18.5556874 L127.764565,15.3496737 L126.794282,15.3496737 L126.794282,14.0624935 Z M123.741539,41.7040417 C122.516444,43.0439426 120.893644,43.7143904 118.874137,43.7143904 C116.919581,43.7143904 115.360733,43.0708003 114.203589,41.7816307 C113.047443,40.4954452 112.470869,38.8650832 112.470869,36.9074552 C112.470869,34.8573174 113.066429,33.1772189 114.260547,31.8711389 C115.456662,30.5600852 117.061476,29.9155003 119.084981,29.9155003 C121.043533,29.9155003 122.610375,30.5531221 123.795499,31.8482601 C124.922666,33.0936617 125.488248,34.7140763 125.488248,36.6906042 C125.488248,38.7298 124.908676,40.392988 123.741539,41.7040417 Z M109.956728,21.0325643 C108.031151,21.0325643 106.526263,19.7165369 106.526263,17.5201738 C106.526263,15.2800426 108.002172,13.9083104 110.069644,13.9083104 C112.108137,13.9083104 113.472129,15.3367422 113.472129,17.4077694 C113.472129,19.9134934 111.700439,21.0325643 109.956728,21.0325643 Z M111.622496,32.3844194 L108.362906,32.3844194 L108.362906,38.8173362 C108.362906,40.4486929 108.941478,41.2593976 110.090629,41.2593976 C110.619238,41.2593976 111.052917,41.2206031 111.402659,41.1310774 L111.486597,43.3582772 C110.902029,43.576123 110.137594,43.6855433 109.189295,43.6855433 C108.028153,43.6855433 107.109832,43.3373879 106.455316,42.6241667 C105.792805,41.9198981 105.466047,40.7292067 105.466047,39.0590555 L105.466047,32.3844194 L103.52648,32.3844194 L103.52648,30.1810932 L105.466047,30.1810932 L105.466047,27.7589264 L108.362906,26.8885379 L108.362906,30.1810932 L111.622496,30.1810932 L111.622496,32.3844194 Z M101.209193,42.0790548 C100.003085,43.1513734 98.3313203,43.6835538 96.1859061,43.6835538 C94.1983751,43.6835538 92.6085502,43.3015776 91.4084372,42.5425989 L92.0949298,40.0925797 C93.3879741,40.8515584 94.8089238,41.2355241 96.3557805,41.2355241 C97.4729548,41.2355241 98.3373159,40.9838575 98.9578572,40.4874873 C99.5744015,39.9901225 99.8841726,39.3246484 99.8841726,38.4791281 C99.8841726,37.7450176 99.6293609,37.1183379 99.1217361,36.6070469 C98.6061172,36.09874 97.7647391,35.6312171 96.5786158,35.1915465 C93.3539992,33.9968762 91.7391928,32.2441625 91.7391928,29.9403686 C91.7391928,28.4333531 92.3027762,27.1969041 93.4439327,26.2340058 C94.58409,25.2750864 96.0919755,24.7926425 97.9725855,24.7926425 C99.6493461,24.7926425 101.045314,25.085093 102.159491,25.6620362 L101.414042,28.05834 C100.37481,27.4983072 99.1936829,27.2138145 97.8766564,27.2138145 C96.835426,27.2138145 96.0180302,27.4764232 95.4304644,27.9727933 C94.9398271,28.4333531 94.6930095,28.9874175 94.6930095,29.6389655 C94.6930095,30.3601445 94.9758005,30.9609612 95.5403832,31.4404209 C96.0340183,31.8731283 96.927358,32.3436355 98.2174045,32.8509476 C99.809228,33.4816062 100.972368,34.2296429 101.722814,35.0861052 C102.468263,35.9385885 102.843985,36.9989704 102.843985,38.2672507 C102.843985,39.8289763 102.29539,41.1042197 101.209193,42.0790548 Z M86.3411826,21.0325643 C85.4548377,21.0325643 84.6674197,20.6973404 84.1757831,19.8567938 L84.1468045,19.8567938 L84.0628666,20.8783812 L82.5869575,20.8783812 C82.6149368,20.4168266 82.6439154,19.6608321 82.6439154,18.9605424 L82.6439154,10.9420265 L84.3716384,10.9420265 L84.3716384,14.9995288 L84.3996177,14.9995288 C84.821306,14.3420125 85.566755,13.9083104 86.5939957,13.9083104 C88.2667594,13.9083104 89.461876,15.2939688 89.4478863,17.364996 C89.4478863,19.8150152 87.8880393,21.0325643 86.3411826,21.0325643 Z M84.3116827,41.9765977 C83.2114959,43.1334683 81.8485033,43.7143904 80.2147109,43.7143904 C78.4550115,43.7143904 77.1899466,43.0897002 76.4225138,41.8323619 L76.4225138,48.7815434 L73.4676978,48.7815434 L73.4676978,34.5300513 C73.4676978,33.114551 73.4297259,31.6672193 73.3587783,30.1810932 L75.9498631,30.1810932 L76.1207368,32.2779833 L76.1716992,32.2779833 C77.1629665,30.704321 78.6528653,29.9155003 80.6583829,29.9155003 C82.2272234,29.9155003 83.5362558,30.5272591 84.584481,31.7647028 C85.635704,32.9961781 86.1583178,34.6245506 86.1583178,36.6368888 C86.1583178,38.8949251 85.5447713,40.6665387 84.3116827,41.9765977 Z M71.0534822,20.8783812 L72.7822045,20.8783812 L72.7822045,10.9420265 L71.0534822,10.9420265 L71.0534822,20.8783812 Z M69.7074771,41.9765977 C68.610288,43.1334683 67.2403006,43.7143904 65.6115045,43.7143904 C63.8468089,43.7143904 62.5837425,43.0897002 61.8163097,41.8323619 L61.8163097,48.7815434 L58.8644915,48.7815434 L58.8644915,34.5300513 C58.8644915,33.114551 58.8265195,31.6672193 58.7505757,30.1810932 L61.3496546,30.1810932 L61.5125342,32.2779833 L61.5644958,32.2779833 C62.5537646,30.704321 64.0466612,29.9155003 66.0551766,29.9155003 C67.6230178,29.9155003 68.9280532,30.5272591 69.9832732,31.7647028 C71.0275014,32.9961781 71.5541122,34.6245506 71.5541122,36.6368888 C71.5541122,38.8949251 70.9405657,40.6665387 69.7074771,41.9765977 Z M58.1420255,19.0033158 C58.1420255,17.2953649 59.6738932,16.4140344 62.2050224,16.4279606 L62.2050224,16.3155562 C62.2050224,15.8679278 62.0221575,15.1258595 60.8130512,15.1258595 C60.1375505,15.1258595 59.436069,15.3367422 58.9714124,15.6301874 L58.6336621,14.5101218 C59.1392884,14.2027503 60.0256332,13.9083104 61.1088326,13.9083104 C63.3012121,13.9083104 63.9347439,15.2939688 63.9347439,16.791037 L63.9347439,19.2410562 C63.9347439,19.8567938 63.9617239,20.4586053 64.0466612,20.8783812 L62.4858148,20.8783812 L62.3599079,20.1233814 L62.3179389,20.1233814 C61.909241,20.654567 61.1927706,21.0325643 60.292436,21.0325643 C58.9144545,21.0325643 58.1420255,20.0388294 58.1420255,19.0033158 Z M54.581657,20.8783812 L52.8799148,20.8783812 L50.334796,14.0624935 L52.2064127,14.0624935 L53.3155928,17.5201738 C53.5124473,18.1219853 53.6533432,18.6670971 53.7802494,19.2271299 L53.8232176,19.2271299 C53.9491246,18.6670971 54.1040101,18.1349168 54.2868749,17.5201738 L55.3830647,14.0624935 L57.1977234,14.0624935 L54.581657,20.8783812 Z M53.9111526,43.4149768 L52.1894252,38.0285156 L46.1978538,38.0285156 L44.5540687,43.4149768 L41.4943303,43.4149768 L47.4239475,25.0642037 L51.0932354,25.0642037 L57.0588261,43.4149768 L53.9111526,43.4149768 Z M33.0375809,42.7256291 C33.0375809,44.3868277 31.6765869,45.7346864 30.0078203,45.7346864 L17.0224182,45.7346864 C15.3516531,45.7346864 13.9896598,44.3868277 13.9896598,42.7256291 L13.9896598,13.9998255 C13.9896598,12.3386269 15.3516531,10.9867893 17.0224182,10.9867893 L30.0078203,10.9867893 C31.6765869,10.9867893 33.0375809,12.3386269 33.0375809,13.9998255 L33.0375809,42.7256291 Z M44.5530695,11.4453597 L46.7604379,11.4453597 L49.8391624,20.8783812 L47.9695442,20.8783812 L47.1131772,18.2055426 L44.1173915,18.2055426 L43.3009949,20.8783812 L41.5153148,20.8783812 L44.5530695,11.4453597 Z M66.6097667,20.8783812 L68.3374897,20.8783812 L68.3374897,14.0624935 L66.6097667,14.0624935 L66.6097667,20.8783812 Z M67.4811226,11.2215455 C68.0706869,11.2215455 68.4374158,11.6273952 68.4504062,12.1585809 C68.4504062,12.6629088 68.0706869,13.0826847 67.4661337,13.0826847 C66.8895599,13.0826847 66.5108398,12.6629088 66.5108398,12.1585809 C66.5108398,11.6273952 66.9045488,11.2215455 67.4811226,11.2215455 Z M77.7055655,15.1258595 C77.0300647,15.1258595 76.327584,15.3367422 75.8639267,15.6301874 L75.5261763,14.5101218 C76.0318026,14.2027503 76.9181475,13.9083104 78.0003476,13.9083104 C80.1937264,13.9083104 80.8272581,15.2939688 80.8272581,16.791037 L80.8272581,19.2410562 C80.8272581,19.8567938 80.8542382,20.4586053 80.9381761,20.8783812 L79.3783291,20.8783812 L79.2524221,20.1233814 L79.2104531,20.1233814 C78.8027545,20.654567 78.0852848,21.0325643 77.1859495,21.0325643 C75.8069688,21.0325643 75.0335404,20.0388294 75.0335404,19.0033158 C75.0335404,17.2953649 76.5654082,16.4140344 79.0975366,16.4279606 L79.0975366,16.3155562 C79.0975366,15.8679278 78.9136725,15.1258595 77.7055655,15.1258595 Z M91.4204284,20.8783812 L93.1481514,20.8783812 L93.1481514,10.9420265 L91.4204284,10.9420265 L91.4204284,20.8783812 Z M98.5071903,13.9083104 C100.728548,13.9083104 101.461007,15.7276709 101.461007,17.2257338 C101.461007,17.5480262 101.432029,17.7996929 101.404049,17.953876 L96.8204371,17.953876 C96.862406,19.1843566 97.8186992,19.7165369 98.9288787,19.7165369 C99.7302863,19.7165369 100.29287,19.591201 100.827475,19.4091655 L101.080288,20.584936 C100.489725,20.8366026 99.6743277,21.0186381 98.6900552,21.0186381 C96.4686971,21.0186381 95.1616631,19.6608321 95.1616631,17.5758787 C95.1616631,15.6858923 96.3138115,13.9083104 98.5071903,13.9083104 Z M116.666768,14.0624935 L116.750706,15.0840808 L116.793674,15.0840808 C117.102446,14.5519005 117.847895,13.9083104 118.987053,13.9083104 C120.18217,13.9083104 121.419255,14.6782311 121.419255,16.8338103 L121.419255,20.8783812 L119.690533,20.8783812 L119.690533,17.0287774 C119.690533,16.0499634 119.323804,15.307895 118.3825,15.307895 C117.694009,15.307895 117.215363,15.7982967 117.031498,16.3155562 C116.97554,16.4558131 116.94756,16.665701 116.94756,16.8616628 L116.94756,20.8783812 L115.218838,20.8783812 L115.218838,16.0927367 C115.218838,15.307895 115.190859,14.6503787 115.16188,14.0624935 L116.666768,14.0624935 Z M144.107486,13.9083104 C146.328844,13.9083104 147.060303,15.7276709 147.060303,17.2257338 C147.060303,17.5480262 147.032324,17.7996929 147.004345,17.953876 L142.420733,17.953876 C142.462701,19.1843566 143.418995,19.7165369 144.529174,19.7165369 C145.330582,19.7165369 145.893166,19.591201 146.426772,19.4091655 L146.679585,20.584936 C146.09002,20.8366026 145.274623,21.0186381 144.290351,21.0186381 C142.068992,21.0186381 140.761959,19.6608321 140.761959,17.5758787 C140.761959,15.6858923 141.914107,13.9083104 144.107486,13.9083104 Z M46.0869357,14.5807476 C45.9030716,14.0057939 45.7491854,13.3622038 45.6082895,12.8170919 L45.5793109,12.8170919 C45.4394143,13.3622038 45.2845288,14.0207148 45.1296433,14.5807476 L44.3991832,16.9044361 L46.8313855,16.9044361 L46.0869357,14.5807476 Z M62.2050224,18.8630589 C62.2459921,18.7377229 62.2459921,18.6113923 62.2459921,18.4850616 L62.2459921,17.5480262 C61.0238954,17.5341 59.8577573,17.7857666 59.8577573,18.8212802 C59.8577573,19.4927228 60.292436,19.801089 60.8410305,19.801089 C61.5435113,19.801089 62.0351479,19.3534606 62.2050224,18.8630589 Z M141.380501,31.9218701 C140.416214,31.9218701 139.632793,32.3316987 139.02824,33.125493 C138.536603,33.7591358 138.241821,34.5220935 138.152887,35.4074029 L144.306339,35.4074029 C144.322327,34.5390039 144.135465,33.7889777 143.734761,33.1503612 C143.22214,32.3366724 142.435721,31.9218701 141.380501,31.9218701 Z M49.1776513,27.5152176 L49.126689,27.5152176 C48.9408263,28.2950857 48.6530391,29.4459879 48.2483382,30.972898 L46.7154712,35.7655056 L51.6658122,35.7655056 L50.11296,30.972898 C49.9450841,30.4805068 49.631316,29.3276151 49.1776513,27.5152176 Z M79.7020898,32.2481414 C78.9706304,32.2481414 78.3161142,32.4878713 77.7215536,32.9683257 C77.1289916,33.4557433 76.7392797,34.0864019 76.5564148,34.8672647 C76.465482,35.2323305 76.4225138,35.5297546 76.4225138,35.7665003 L76.4225138,37.9698265 C76.4225138,38.9337196 76.7142981,39.7474085 77.3098579,40.4098984 C77.9004214,41.0674147 78.6728505,41.3996545 79.6161533,41.3996545 C80.7343268,41.3996545 81.5996872,40.9768943 82.2202285,40.1204321 C82.8417691,39.2679488 83.1525394,38.1429095 83.1525394,36.7413354 C83.1525394,35.4561446 82.8587566,34.3927786 82.2771864,33.5601899 C81.6346613,32.6927856 80.7762958,32.2481414 79.7020898,32.2481414 Z M118.97706,32.0661059 C117.794934,32.0661059 116.891602,32.588339 116.275058,33.6397682 C115.740453,34.5051831 115.478646,35.5605913 115.478646,36.8109665 C115.478646,38.0285156 115.740453,39.0670134 116.275058,39.9344176 C116.906591,40.9838575 117.80093,41.5060905 118.955077,41.5060905 C120.078247,41.5060905 120.96659,40.9768943 121.601121,39.9015916 C122.151714,39.0232453 122.426511,37.9698265 122.426511,36.7592405 C122.426511,35.5496492 122.162706,34.5051831 121.637094,33.6397682 C121.008559,32.588339 120.12721,32.0661059 118.97706,32.0661059 Z M65.0938871,32.2481414 C64.3654256,32.2481414 63.7079115,32.4878713 63.1143503,32.9683257 C62.5197897,33.4557433 62.1340748,34.0864019 61.9502107,34.8672647 C61.8612764,35.2323305 61.8163097,35.5297546 61.8163097,35.7665003 L61.8163097,37.9698265 C61.8163097,38.9337196 62.1070948,39.7474085 62.7026546,40.4098984 C63.2942173,41.0674147 64.0666464,41.3996545 65.012947,41.3996545 C66.1221271,41.3996545 66.9944823,40.9768943 67.6130252,40.1204321 C68.2335665,39.2679488 68.5403397,38.1429095 68.5403397,36.7413354 C68.5403397,35.4561446 68.2525525,34.3927786 67.6679845,33.5601899 C67.027458,32.6927856 66.1710909,32.2481414 65.0938871,32.2481414 Z M15.8312986,39.6767827 L31.1959421,39.6767827 L31.1959421,17.0556351 L15.8312986,17.0556351 L15.8312986,39.6767827 Z M23.5126211,41.0127046 C22.6502585,41.0127046 21.9477777,41.713989 21.9477777,42.5744302 C21.9477777,43.4328819 22.6502585,44.1331716 23.5126211,44.1331716 C24.3779815,44.1331716 25.0784637,43.4328819 25.0784637,42.5744302 C25.0784637,41.713989 24.3779815,41.0127046 23.5126211,41.0127046 Z M22.0077334,14.7488569 L25.0185081,14.7488569 C25.2153626,14.7488569 25.3762436,14.586716 25.3762436,14.3987121 C25.3762436,14.2007609 25.2153626,14.0406094 25.0185081,14.0406094 L22.0077334,14.0406094 C21.8158752,14.0406094 21.6519964,14.2007609 21.6519964,14.3987121 C21.6519964,14.586716 21.8158752,14.7488569 22.0077334,14.7488569 Z M7.71829517,1.98945936 C4.56362688,1.98945936 1.99852283,4.54392517 1.99852283,7.68329203 L1.99852283,49.3256605 C1.99852283,52.4600538 4.56362688,55.0105406 7.71829517,55.0105406 L153.281705,55.0105406 C156.435374,55.0105406 159.001477,52.4600538 159.001477,49.3256605 L159.001477,7.68329203 C159.001477,4.54392517 156.435374,1.98945936 153.281705,1.98945936 L7.71829517,1.98945936 Z M153.281705,57 L7.71829517,57 C3.4624408,57 0,53.5572406 0,49.3256605 L0,7.68329203 C0,3.44673833 3.4624408,0 7.71829517,0 L153.281705,0 C157.537559,0 161,3.44673833 161,7.68329203 L161,49.3256605 C161,53.5572406 157.537559,57 153.281705,57 Z" id="appstore"></path>
                </g>
            </g>
        </g>
    </g>
</svg>