<?xml version="1.0" encoding="UTF-8"?>
<svg width="96px" height="96px" viewBox="0 0 96 96" version="1.1" xmlns="http://www.w3.org/2000/svg" xmlns:xlink="http://www.w3.org/1999/xlink">
    <!-- Generator: Sketch 51.2 (57519) - http://www.bohemiancoding.com/sketch -->
    <title>icon</title>
    <desc>Created with Sketch.</desc>
    <defs>
        <linearGradient x1="0%" y1="0%" x2="100%" y2="100%" id="linearGradient-1">
            <stop stop-color="#17E0DA" offset="0%"></stop>
            <stop stop-color="#55AEFF" offset="100%"></stop>
        </linearGradient>
    </defs>
    <g id="Symbols" stroke="none" stroke-width="1" fill="none" fill-rule="evenodd">
        <g id="section/phone" transform="translate(0.000000, -302.000000)">
            <g id="icon" transform="translate(0.000000, 302.000000)">
                <circle id="bg" fill="url(#linearGradient-1)" cx="48" cy="48" r="48"></circle>
                <g id="icon/community" transform="translate(8.000000, 8.000000)" fill="#005276">
                    <g id="icon_32">
                        <g id="ol" transform="translate(22.500000, 18.750000)" fill-rule="nonzero">
                            <path d="M6.77510205,18.9244741 C5.64803861,17.0470161 5,14.8491868 5,12.5 C5,5.59644063 10.5964406,0 17.5,0 C24.4035594,0 30,5.59644063 30,12.5 C30,14.8491868 29.3519614,17.0470161 28.224898,18.9244741 C32.3472942,22.25881 35,27.2733696 35,32.1875 C35,40.3829365 34.6749997,42.5 17.5,42.5 C0.325000286,42.5 0,40.3829365 0,32.1875 C2.62438883e-16,27.2733696 2.65270582,22.25881 6.77510205,18.9244741 Z M10.1697259,22.6261834 C7.10020554,24.9733519 5,28.5883412 5,32.1875 C5,35.7331482 5.12148822,36.2823785 5.16927966,36.315704 C6.17435806,37.016556 9.79536197,37.5 17.5,37.5 C25.204638,37.5 28.8256419,37.016556 29.8307203,36.315704 C29.8785118,36.2823785 30,35.7331482 30,32.1875 C30,28.5883412 27.8997945,24.9733519 24.8302741,22.6261834 C22.7709532,24.1195016 20.2383023,25 17.5,25 C14.7616977,25 12.2290468,24.1195016 10.1697259,22.6261834 Z M17.5,20 C21.6421356,20 25,16.6421356 25,12.5 C25,8.35786438 21.6421356,5 17.5,5 C13.3578644,5 10,8.35786438 10,12.5 C10,16.6421356 13.3578644,20 17.5,20 Z" id="icon"></path>
                        </g>
                    </g>
                </g>
            </g>
        </g>
    </g>
</svg>