<?xml version="1.0" encoding="UTF-8"?>
<svg width="34px" height="34px" viewBox="0 0 34 34" version="1.1" xmlns="http://www.w3.org/2000/svg" xmlns:xlink="http://www.w3.org/1999/xlink">
    <!-- Generator: Sketch 51.2 (57519) - http://www.bohemiancoding.com/sketch -->
    <title>icon/instagram</title>
    <desc>Created with Sketch.</desc>
    <defs>
        <path d="M20.0427309,10.2266912 C21.8427855,10.1444807 22.4169538,10.125 26.9999534,10.125 C31.5834191,10.125 32.1579601,10.1444807 33.9578284,10.2266912 C35.7538751,10.3081559 36.9806004,10.5935623 38.0543696,11.0109528 C39.1633718,11.4418586 40.1049704,12.0191027 41.0429339,12.9571594 C41.9810837,13.8954957 42.5576754,14.8362554 42.9892337,15.9460965 C43.4063445,17.019586 43.6919373,18.2463113 43.7736817,20.042358 C43.8558921,21.8422263 43.875,22.4167674 43.875,26.9999534 C43.875,31.5830462 43.8558921,32.1574009 43.7736817,33.9574556 C43.6919373,35.7537819 43.4063445,36.9802276 42.9892337,38.0531579 C42.5576754,39.1632786 41.9810837,40.1043179 41.0429339,41.0423746 C40.1049704,41.9807109 39.1633718,42.5573958 38.0543696,42.9890472 C36.9806004,43.4062513 35.7538751,43.6912848 33.9578284,43.7731224 C32.1579601,43.8553329 31.5834191,43.875 26.9999534,43.875 C22.4169538,43.875 21.8427855,43.8553329 20.0427309,43.7731224 C18.2463113,43.6912848 17.0198656,43.4062513 15.9464693,42.9890472 C14.8366282,42.5573958 13.8958685,41.9807109 12.9577186,41.0423746 C12.0191027,40.1043179 11.4422314,39.1632786 11.0114188,38.0531579 C10.5938419,36.9802276 10.3084356,35.7537819 10.227064,33.9574556 C10.1445739,32.1574009 10.125,31.5830462 10.125,26.9999534 C10.125,22.4167674 10.1445739,21.8422263 10.227064,20.042358 C10.3084356,18.2463113 10.5938419,17.019586 11.0114188,15.9460965 C11.4422314,14.8362554 12.0191027,13.8954957 12.9577186,12.9571594 C13.8958685,12.0191027 14.8366282,11.4418586 15.9464693,11.0109528 C17.0198656,10.5935623 18.2463113,10.3081559 20.0427309,10.2266912 Z M20.1813328,40.7355301 C21.9605087,40.8172746 22.4944106,40.8341454 26.9999534,40.8341454 C31.5063351,40.8341454 32.0399574,40.8172746 33.8194128,40.7355301 C35.4642743,40.6607764 36.3579634,40.386462 36.9526377,40.1552101 C37.7405344,39.8484589 38.3023991,39.4829859 38.8929721,38.8925061 C39.4836383,38.3021194 39.8487385,37.7401616 40.1552101,36.9522648 C40.3862755,36.3578702 40.6610561,35.4642743 40.736369,33.8188536 C40.8176474,32.0393981 40.8342386,31.5054962 40.8342386,26.9999534 C40.8342386,22.4938513 40.8176474,21.9604155 40.736369,20.1807736 C40.6610561,18.5357257 40.3862755,17.642223 40.1552101,17.0475487 C39.8487385,16.259652 39.4836383,15.6976009 38.8929721,15.1072143 C38.3023991,14.5167345 37.7405344,14.1508887 36.9526377,13.8449763 C36.3579634,13.6139109 35.4642743,13.3389439 33.8194128,13.2638174 C32.0394913,13.1826322 31.5057759,13.1653886 26.9999534,13.1653886 C22.4944106,13.1653886 21.9605087,13.1826322 20.1813328,13.2638174 C18.5360053,13.3389439 17.6425026,13.6139109 17.048108,13.8449763 C16.2600248,14.1508887 15.6983466,14.5167345 15.1076804,15.1072143 C14.5171073,15.6976009 14.1513547,16.259652 13.8450695,17.0475487 C13.6139109,17.642223 13.3393168,18.5357257 13.264097,20.1807736 C13.1830051,21.9604155 13.1654818,22.4938513 13.1654818,26.9999534 C13.1654818,31.5054962 13.1830051,32.0393981 13.264097,33.8188536 C13.3393168,35.4642743 13.6139109,36.3578702 13.8450695,36.9522648 C14.1513547,37.7401616 14.5171073,38.3021194 15.1076804,38.8925061 C15.6983466,39.4829859 16.2600248,39.8484589 17.048108,40.1552101 C17.6425026,40.386462 18.5360053,40.6607764 20.1813328,40.7355301 Z M33.9830881,17.9918504 C33.9830881,16.8733409 34.8897333,15.9670685 36.0081496,15.9670685 C37.1264727,15.9670685 38.0331179,16.8733409 38.0331179,17.9918504 C38.0331179,19.1098939 37.1264727,20.0171916 36.0081496,20.0171916 C34.8897333,20.0171916 33.9830881,19.1098939 33.9830881,17.9918504 Z M18.3344872,26.9999534 C18.3344872,22.2138511 22.2141307,18.3342075 26.9999534,18.3342075 C31.7862421,18.3342075 35.6655128,22.2138511 35.6655128,26.9999534 C35.6655128,31.7859625 31.7862421,35.66514 26.9999534,35.66514 C22.2141307,35.66514 18.3344872,31.7859625 18.3344872,26.9999534 Z M21.3752486,26.9999534 C21.3752486,30.1068001 23.8932932,32.6249379 26.9999534,32.6249379 C30.1068001,32.6249379 32.6251243,30.1068001 32.6251243,26.9999534 C32.6251243,23.8932932 30.1068001,21.3749689 26.9999534,21.3749689 C23.8932932,21.3749689 21.3752486,23.8932932 21.3752486,26.9999534 Z" id="path-1"></path>
    </defs>
    <g id="desktop" stroke="none" stroke-width="1" fill="none" fill-rule="evenodd">
        <g id="teaser-desktop-#1" transform="translate(-1136.000000, -23.000000)">
            <g id="head">
                <g id="icon/instagram_wh" transform="translate(1126.000000, 13.000000)">
                    <g id="icon_32">
                        <mask id="mask-2" fill="white">
                            <use xlink:href="#path-1"></use>
                        </mask>
                        <use id="Clip-2" fill="#FFFFFF" xlink:href="#path-1"></use>
                    </g>
                </g>
            </g>
        </g>
    </g>
</svg>