<?xml version="1.0" encoding="UTF-8"?>
<svg width="80px" height="80px" viewBox="0 0 80 80" version="1.1" xmlns="http://www.w3.org/2000/svg" xmlns:xlink="http://www.w3.org/1999/xlink">
    <!-- Generator: Sketch 51.2 (57519) - http://www.bohemiancoding.com/sketch -->
    <title>Clip 2</title>
    <desc>Created with Sketch.</desc>
    <defs>
        <path d="M47.5086954,24.2410457 C51.7754917,24.0461765 53.136483,24 63.9998895,24 C74.8644007,24 76.2262759,24.0461765 80.4926303,24.2410457 C84.7499261,24.4341474 87.6577195,25.1106662 90.2029501,26.1000362 C92.8316961,27.1214425 95.0636335,28.4897249 97.2869543,30.7132666 C99.510717,32.9374712 100.877453,35.1674202 101.900406,37.7981546 C102.889113,40.3427224 103.566074,43.2505158 103.759838,47.5078116 C103.954707,51.774166 104,53.1360411 104,63.9998895 C104,74.863517 103.954707,76.2249502 103.759838,80.4917465 C103.566074,84.7497052 102.889113,87.6568358 101.900406,90.2000779 C100.877453,92.8314751 99.510717,95.0620869 97.2869543,97.2856287 C95.0636335,99.5098332 92.8316961,100.87679 90.2029501,101.899964 C87.6577195,102.888892 84.7499261,103.564527 80.4926303,103.758512 C76.2262759,103.953382 74.8644007,104 63.9998895,104 C53.136483,104 51.7754917,103.953382 47.5086954,103.758512 C43.2505158,103.564527 40.3433852,102.888892 37.7990384,101.899964 C35.1683039,100.87679 32.9383549,99.5098332 30.7145923,97.2856287 C28.4897249,95.0620869 27.1223263,92.8314751 26.1011409,90.2000779 C25.111329,87.6568358 24.4348102,84.7497052 24.2419295,80.4917465 C24.0463974,76.2249502 24,74.863517 24,63.9998895 C24,53.1360411 24.0463974,51.774166 24.2419295,47.5078116 C24.4348102,43.2505158 25.111329,40.3427224 26.1011409,37.7981546 C27.1223263,35.1674202 28.4897249,32.9374712 30.7145923,30.7132666 C32.9383549,28.4897249 35.1683039,27.1214425 37.7990384,26.1000362 C40.3433852,25.1106662 43.2505158,24.4341474 47.5086954,24.2410457 Z M47.8372334,96.5582937 C52.0545391,96.7520582 53.3200843,96.7920484 63.9998895,96.7920484 C74.6816832,96.7920484 75.9465656,96.7520582 80.1645341,96.5582937 C84.0634651,96.3810997 86.1818393,95.7308728 87.5914375,95.1827203 C89.4590446,94.4556062 90.7908719,93.5892999 92.1907487,92.189644 C93.5908464,90.790209 94.456269,89.4581608 95.1827203,87.5905537 C95.7304309,86.1816183 96.3817625,84.0634651 96.5602821,80.1632085 C96.752942,75.94524 96.7922693,74.6796948 96.7922693,63.9998895 C96.7922693,53.3187586 96.752942,52.0543181 96.5602821,47.8359077 C96.3817625,43.9365349 95.7304309,41.8186026 95.1827203,40.4090044 C94.456269,38.5413973 93.5908464,37.2091281 92.1907487,35.8096932 C90.7908719,34.4100373 89.4590446,33.5428472 87.5914375,32.8177216 C86.1818393,32.270011 84.0634651,31.6182375 80.1645341,31.4401597 C75.9454609,31.2477209 74.6803576,31.2068469 63.9998895,31.2068469 C53.3200843,31.2068469 52.0545391,31.2477209 47.8372334,31.4401597 C43.9371978,31.6182375 41.8192654,32.270011 40.4103301,32.8177216 C38.542281,33.5428472 37.2108957,34.4100373 35.8107979,35.8096932 C34.4109211,37.2091281 33.5439519,38.5413973 32.8179426,40.4090044 C32.270011,41.8186026 31.6191213,43.9365349 31.4408226,47.8359077 C31.2486046,52.0543181 31.2070679,53.3187586 31.2070679,63.9998895 C31.2070679,74.6796948 31.2486046,75.94524 31.4408226,80.1632085 C31.6191213,84.0634651 32.270011,86.1816183 32.8179426,87.5905537 C33.5439519,89.4581608 34.4109211,90.790209 35.8107979,92.189644 C37.2108957,93.5892999 38.542281,94.4556062 40.4103301,95.1827203 C41.8192654,95.7308728 43.9371978,96.3810997 47.8372334,96.5582937 Z M80.552505,42.6473491 C80.552505,39.9960673 82.7015899,37.8478661 85.3526509,37.8478661 C88.0034909,37.8478661 90.1525757,39.9960673 90.1525757,42.6473491 C90.1525757,45.2975263 88.0034909,47.4481578 85.3526509,47.4481578 C82.7015899,47.4481578 80.552505,45.2975263 80.552505,42.6473491 Z M43.4595251,63.9998895 C43.4595251,52.6550544 52.6557172,43.4588623 63.9998895,43.4588623 C75.3451665,43.4588623 84.5404749,52.6550544 84.5404749,63.9998895 C84.5404749,75.3445037 75.3451665,84.5395911 63.9998895,84.5395911 C52.6557172,84.5395911 43.4595251,75.3445037 43.4595251,63.9998895 Z M50.6672558,63.9998895 C50.6672558,71.3642668 56.6359541,77.333186 63.9998895,77.333186 C71.3642668,77.333186 77.3336279,71.3642668 77.3336279,63.9998895 C77.3336279,56.6359541 71.3642668,50.666593 63.9998895,50.666593 C56.6359541,50.666593 50.6672558,56.6359541 50.6672558,63.9998895 Z" id="path-1"></path>
    </defs>
    <g id="Symbols" stroke="none" stroke-width="1" fill="none" fill-rule="evenodd">
        <g id="icon/instagram" transform="translate(-24.000000, -24.000000)">
            <g id="icon_32">
                <mask id="mask-2" fill="white">
                    <use xlink:href="#path-1"></use>
                </mask>
                <use id="Clip-2" fill="#005276" xlink:href="#path-1"></use>
            </g>
        </g>
    </g>
</svg>