<?xml version="1.0" encoding="UTF-8"?>
<svg width="145px" height="32px" viewBox="0 0 145 32" version="1.1" xmlns="http://www.w3.org/2000/svg" xmlns:xlink="http://www.w3.org/1999/xlink">
    <!-- Generator: Sketch 51.2 (57519) - http://www.bohemiancoding.com/sketch -->
    <title>logo_color</title>
    <desc>Created with Sketch.</desc>
    <defs>
        <linearGradient x1="2.96920159%" y1="2.96920159%" x2="100%" y2="100%" id="linearGradient-1">
            <stop stop-color="#20E6E9" offset="0%"></stop>
            <stop stop-color="#442A93" offset="100%"></stop>
        </linearGradient>
        <linearGradient x1="53.2004969%" y1="0%" x2="48.0021174%" y2="112.645369%" id="linearGradient-2">
            <stop stop-color="#A0FF75" offset="0%"></stop>
            <stop stop-color="#8C44FF" offset="100%"></stop>
        </linearGradient>
        <path d="M89.837038,14.4911115 C89.4608755,14.6867253 89.1582617,14.8536186 88.4907784,15.2289397 C87.1701125,15.9715193 86.5634206,16.2884673 85.7862051,16.6086615 C84.7667535,17.0286692 83.6012007,17.2910822 82.2606142,17.4398216 C80.86885,17.5944018 80.2001266,16.5021346 80.8025706,15.2217374 C80.9934227,14.8162382 81.1584221,14.4901234 81.5202522,13.7919946 C81.6846298,13.4748415 81.7546193,13.3392194 81.8397119,13.1722124 C81.8925748,13.0684499 81.9210996,12.9917574 81.9373927,12.9466705 C81.0046662,13.0749089 80.3141108,13.2810596 79.7557732,13.5801945 C78.7226696,14.1337039 77.9068059,14.6026412 76.0804461,15.6766559 C75.320905,16.1233139 74.9819313,16.3218741 74.5585018,16.5670175 C74.542341,16.5763648 74.5306999,16.5838932 74.4784984,16.6184925 C74.4477417,16.6388413 74.4323517,16.6488584 74.4119364,16.6616081 C74.2445659,16.7661336 74.1077929,16.8185971 73.926081,16.7939664 C73.9157836,16.7926109 73.8743913,16.8029104 73.776569,16.8431499 C73.2207197,17.0752645 72.8710288,17.0698861 72.5205478,16.6154879 C72.0388929,15.9914258 71.9896833,15.3302807 72.4179605,14.6926832 C72.5921281,14.4335979 72.731061,14.2248153 73.041856,13.7561719 C73.8535556,12.5322216 74.2209344,11.9907157 74.7017291,11.3280123 C76.3415037,9.06724235 78.2387496,6.90276091 80.7801418,4.30337532 C81.2344881,3.83919467 81.6819675,3.46858153 82.1487604,3.19131994 C82.5259467,2.96760941 83.1415985,2.92701493 83.4971198,3.14677981 C84.0328277,3.47875092 83.9889564,3.84478274 83.6716369,4.45465659 C83.643206,4.50929939 83.6280243,4.53910134 83.6130515,4.57015986 C83.3230217,5.17817658 82.9760426,5.51481896 82.1525185,6.133705 C81.6689872,6.49707991 81.4700106,6.66350872 81.267562,6.89486141 C81.0378792,7.1572665 80.8495249,7.36425009 80.4297835,7.8195286 C79.9085761,8.38486381 79.6801301,8.63769068 79.4080989,8.95741688 C79.1559887,9.25373416 78.9471727,9.48555751 78.4801459,9.9942514 C77.323392,11.2542077 76.8499724,11.8363399 76.3976194,12.6547022 C76.7121258,12.5450924 76.8919189,12.4633776 77.090223,12.3520156 C78.9941443,11.2827748 80.9011339,10.5093635 82.8636475,10.0367249 C83.1634376,9.9595539 83.2493162,9.93987108 83.3610723,9.92407265 C83.4325001,9.91397525 83.5015698,9.90843577 83.5696144,9.90801942 C84.6062509,9.9005326 85.2633515,10.6512911 84.973171,11.6358526 C84.8109264,12.1860003 84.6420113,12.6250463 84.2597266,13.5419036 C84.0595023,14.0220796 83.9769277,14.2237208 83.8802463,14.4732033 C83.8558678,14.5361361 83.8351212,14.594558 83.8112178,14.6685834 C83.8920792,14.666246 83.9447768,14.6579709 83.9932705,14.6422371 C84.8280841,14.3708199 85.2301736,14.215244 85.6451826,13.9744483 C86.568649,13.4389948 87.3038337,12.9983485 88.9482042,12.0019073 C89.9176694,11.4144392 90.3482225,11.1545109 90.8882424,10.8321442 C91.2196361,10.6350834 91.5021739,10.5131387 91.7984863,10.4689975 C92.6744286,10.3397496 93.2209679,11.0332032 92.9754284,11.8875797 C92.9281488,12.0527704 92.8880807,12.1837365 92.7973162,12.4741003 C92.6132825,13.062888 92.5380303,13.3289779 92.4745212,13.6484943 C92.2758873,14.6506779 92.8024965,15.1718348 93.8144922,14.9744356 C94.5901467,14.823225 95.0243933,14.7207712 95.4722245,14.5673445 C95.7696975,14.4651909 95.7505584,14.5261384 95.5739495,14.3241891 C93.7969165,12.2932343 95.0436448,9.75038131 97.4379984,8.81724146 C97.9053723,8.63473386 98.5168897,8.69045474 99.1332623,8.89377008 C100.282233,9.27230112 101.182036,9.87066549 101.785185,10.7441041 C102.050404,11.128538 102.307539,11.1967391 102.884484,11.0710191 C104.332542,10.7554945 105.688844,10.4808014 107.977381,10.0319698 C108.855129,9.86035881 109.366459,10.2428865 109.544226,11.153321 C109.672082,11.8086204 109.55957,11.7503868 110.140722,11.470897 C110.357932,11.3663916 110.532427,11.2796648 110.922381,11.0837618 C111.838479,10.6235389 112.254634,10.4262103 112.789867,10.2155941 C113.315548,10.0088408 113.934049,9.90960721 114.55811,9.91636425 C115.675198,9.92846814 116.245652,10.4771336 116.383431,11.6048446 C116.472977,12.3421047 116.478338,12.3447721 117.058367,11.949401 C118.912573,10.6861389 120.130193,10.0410799 121.613499,9.68108333 C122.988198,9.34724956 123.642594,9.64903759 124.074257,10.9396999 C124.20481,11.3298639 124.284424,11.7228838 124.368242,12.3073025 C124.379664,12.3869361 124.386765,12.4379517 124.408752,12.5972316 C124.416693,12.6547456 124.416693,12.6547456 124.424576,12.7114808 C124.483833,13.13372 124.466874,13.1224245 124.851506,12.9975987 C125.063084,12.9289029 125.236902,12.8729047 125.61078,12.7527771 C127.151133,12.2578164 127.852682,12.0223052 128.672872,11.713009 C128.917738,11.6208523 129.151354,11.4524362 129.525454,11.1197858 C129.561888,11.087388 129.602998,11.0505709 129.681006,10.9806708 C129.924033,10.7630443 130.119504,10.5771313 130.541104,10.1678441 C131.314031,9.41749541 131.670213,9.09235098 132.147622,8.73031236 C132.603915,8.38474057 133.216223,8.20336122 134.000264,8.1081522 C135.082136,7.97706825 135.803739,8.9183495 135.517315,9.98432792 C135.126551,11.4343045 134.323911,12.3803269 132.985613,12.7703352 C132.680378,12.8589969 132.361728,13.0027838 132.036889,13.1933781 C131.783293,13.3419244 131.782568,13.3592873 132.034709,13.5594074 C132.170605,13.6668501 132.24458,13.7109044 132.257672,13.7118097 C132.50458,13.7289977 132.699646,13.746708 133.143032,13.7900529 C133.253616,13.8008626 133.302341,13.8056029 133.363723,13.8114903 C134.290933,13.900422 134.826832,13.9202869 135.380866,13.8606588 C137.716411,13.6092964 140.070197,13.0480012 143.078035,12.0980538 C143.887797,11.8423085 144.825536,12.4150512 144.96602,13.2471952 C145.081688,13.9345774 144.670379,14.3747053 143.995968,14.5062323 C143.715413,14.56095 143.503358,14.6018158 142.981146,14.7020716 C140.394671,15.1986304 139.234079,15.446479 137.812321,15.8421163 C135.598401,16.4578486 134.053267,16.6206273 132.475871,16.2034052 C132.429197,16.1910579 132.395073,16.1821114 132.313361,16.1607657 C132.210828,16.1340172 132.16182,16.1212037 132.107163,16.106786 C130.566418,15.7003616 129.805644,15.2738158 129.304494,14.2117687 C129.214701,14.0219505 129.115113,13.9944306 128.853588,14.0863024 C128.733571,14.1284859 128.630947,14.1644417 128.425292,14.2364124 C126.936354,14.7575715 126.256237,15.0081501 125.477653,15.3357906 C124.623331,15.6946982 123.854725,15.6968838 123.121161,15.280677 C122.257276,14.7902592 121.859503,14.2536212 122.024266,13.3712303 C122.038219,13.2967719 122.033917,13.2109423 122.008069,13.0102367 C121.991229,12.879604 121.984955,12.8247994 121.979821,12.7520437 C121.936255,12.1257856 121.845384,12.0646233 121.212548,12.2272737 C120.469248,12.4179601 119.846713,12.746444 118.973942,13.3461316 C118.866824,13.4197336 118.442584,13.7160756 118.336709,13.7887552 C118.088407,13.9592051 117.890316,14.087906 117.696514,14.2019078 C117.613597,14.2506826 117.532758,14.2959088 117.455251,14.3367926 C117.357746,14.3889558 117.272929,14.4409132 117.193619,14.4961863 C117.108851,14.5552636 117.032432,14.6161512 116.928816,14.705354 C116.928261,14.7058322 116.748331,14.8625843 116.689196,14.9125478 C116.584271,15.0011999 116.485111,15.0798853 116.375435,15.1600363 C115.740954,15.624291 114.749048,15.7580075 114.050576,15.4576335 C113.396907,15.1761126 113.15465,14.3344558 113.436521,13.5663149 C113.478594,13.4518002 113.517773,13.3642196 113.604085,13.1826942 C113.615148,13.1594303 113.615148,13.1594303 113.62599,13.1365771 C113.730386,12.9162649 113.775014,12.8003378 113.794901,12.6845313 C113.808853,12.6039817 113.791523,12.4900059 113.760949,12.4047998 C113.683538,12.4169178 113.597442,12.4417538 113.543536,12.4667039 C113.218935,12.6170353 112.95741,12.7458189 112.380736,13.0355861 C111.704857,13.3752025 111.403928,13.5225749 111.021277,13.6956381 C110.879269,13.7600937 110.710652,13.855892 110.479524,14.0002333 C110.439306,14.0253494 110.397065,14.0519931 110.347187,14.0836598 C110.405253,14.0467951 110.123533,14.2261106 110.056266,14.2683198 C109.945619,14.3377495 109.855641,14.3923228 109.771915,14.4401398 C109.471458,14.6113461 109.369876,14.6803318 108.947392,14.9848149 C108.901494,15.0178929 108.863555,15.0449703 108.826211,15.0712118 C108.671359,15.1800264 108.532852,15.2696874 108.374528,15.3611104 C108.179704,15.4737457 108.123899,15.5054398 108.013142,15.5643345 C107.75824,15.699877 107.526872,15.8011551 107.298693,15.8675915 C106.893534,15.9855572 106.525151,15.9842662 106.205342,15.8121981 C105.68293,15.5310985 105.697637,15.054624 105.952401,14.2511363 C105.968896,14.199116 105.986179,14.1462324 106.008903,14.0778393 C106.139708,13.6841688 106.168515,13.587568 106.179966,13.4856279 C106.245811,12.8990821 105.870673,12.5909727 105.269756,12.7507787 C104.209372,13.0329928 103.106132,13.3466795 101.793147,13.735572 C101.635935,13.7823578 101.46221,13.8783054 101.300118,14.0055853 C99.0221598,15.7993814 96.453568,16.9303572 93.603362,17.391608 C91.7734842,17.6878605 90.5852403,16.8603493 90.1899023,15.0320291 C90.1546364,14.8707169 90.1251146,14.7445524 90.0822298,14.5672657 C90.0745126,14.5353628 90.0657574,14.4993 90.0532746,14.4479563 C89.927498,14.4605305 89.8728847,14.4723896 89.837038,14.4911115 Z M98.1796273,12.5199477 L98.1869111,12.5172261 C98.849777,12.2695495 99.1412093,12.1551055 99.4926294,11.9964604 C99.6206676,11.9386693 99.624287,11.8648024 99.4783791,11.6136034 C99.1037098,10.9688882 97.8549073,10.7554238 97.2515264,11.2380655 C96.9737793,11.4602129 96.9022442,11.7803288 97.015142,12.2185141 C97.0874317,12.4980199 97.2812194,12.6368731 97.7045125,12.6989831 C97.8276367,12.6517577 97.9563879,12.6033604 98.1796273,12.5199477 Z M62.166786,17.9732823 C61.5061701,18.2245301 61.1983254,18.3306691 60.8115537,18.4258559 C59.5539599,18.7356978 58.3845941,18.0853554 57.9245041,16.858281 C57.7205411,16.3138798 57.6988509,16.3029639 57.1326223,16.4514981 C55.4703856,16.8872355 54.4866262,17.1325303 53.4217166,17.3656359 C52.0436127,17.6677845 51.0288337,17.2195171 50.3022101,15.9867756 C50.190177,15.7966641 50.1361737,15.7880834 49.8587616,15.8991145 C49.015515,16.2369752 48.5596455,16.4455567 48.0987111,16.7287451 C47.022084,17.3906668 45.9260474,17.5024358 44.3465381,17.2905894 C44.1273703,17.2611942 43.9475541,17.2338414 43.5667058,17.1735348 C43.4372965,17.1530382 43.3792849,17.1438843 43.3087975,17.1328955 C42.5285422,17.0113378 41.7687987,16.3634039 41.4803982,15.5820457 C41.1855928,14.7829148 41.3690131,14.8760197 40.5898073,15.1393905 C40.3769105,15.2112612 40.1726617,15.2805078 39.8478783,15.3908281 C37.6615559,16.1335398 36.7299266,16.4383426 35.5582248,16.7784861 C33.9524469,17.2450624 32.4063962,17.6249425 30.8987359,17.9167867 C30.129146,18.0652674 29.2729318,18.072967 28.3954875,17.9582929 C27.1732954,17.79822 26.4353221,16.8816789 26.4955477,15.6321236 C26.5388054,14.7258231 26.6561719,14.0076941 26.9060132,13.3732656 C27.470222,11.9400092 28.1308224,10.4703564 28.9096583,8.89328152 C29.1715806,8.36315072 29.4410779,7.95072767 30.0286717,7.12855335 C30.0884324,7.04495629 30.0884324,7.04495629 30.1478415,6.96175391 C30.2044674,6.88238276 30.2510037,6.81686181 30.295283,6.75407475 C29.9830419,6.62628037 29.667132,6.62031254 29.3253217,6.63865356 C28.4968915,6.68287119 27.8338861,6.72043382 26.3423869,6.80656619 C24.2617689,6.92671232 23.3050686,6.97982638 22.1599574,7.03614332 C21.3456903,7.07617915 20.9437306,7.0854971 20.4613137,7.06152134 C20.1716558,7.05329121 20.0902749,7.05137775 19.9981856,7.04872024 C19.8590503,7.04470509 19.7141224,7.03944692 19.5498922,7.03217888 C19.0258883,7.06194996 18.5904748,7.06645011 17.5746007,7.06261195 C16.3530171,7.05799659 15.7799425,7.06658004 15.0539144,7.11568072 C14.646974,7.14314019 14.2263166,7.13398532 13.7076791,7.09495759 C13.5192648,7.08077933 13.3652145,7.0670379 13.036583,7.0361435 C12.8685235,7.02034436 12.8023562,7.01418964 12.7135458,7.00621377 C12.3058547,6.96938454 11.7307098,6.66102372 11.7962255,6.24273242 C11.8863489,5.66399886 12.0276726,5.27645012 12.4068306,5.1529629 C13.0401731,4.94699049 13.7010866,4.8250295 14.3371151,4.80206664 C15.7383689,4.75099167 16.9783277,4.72122795 19.3084868,4.6763326 C19.4511747,4.67358584 19.4511747,4.67358584 19.5938484,4.67084419 C20.2783998,4.65768969 20.5827385,4.6517522 20.9629901,4.64399929 C21.3715612,4.63568968 21.7930605,4.62849002 22.3323402,4.62029531 C22.4985807,4.61776918 22.6316049,4.61580015 22.9307218,4.61141183 C24.6798126,4.58575098 25.4566699,4.5708544 26.4260191,4.53916329 C27.0153114,4.51983973 27.4881446,4.49526456 28.5531061,4.43309874 C28.6938743,4.42488155 28.6938743,4.42488155 28.8347644,4.41669885 C29.9213947,4.35374952 30.5733916,4.32380423 31.2705277,4.31156435 C32.0124022,4.29818277 32.4514086,3.99936344 33.2356805,3.12320821 C33.2640869,3.09147376 33.36884,2.97407254 33.3917909,2.94841534 C34.5283625,1.67813809 35.070789,1.09272104 35.7595171,0.420239917 C36.0329076,0.153195028 36.3872974,0.0590908991 36.9576548,0.00256262951 C37.3038711,-0.032059008 37.723469,0.28995794 37.8391046,0.615679736 C38.1739723,1.56010692 37.4318447,2.87099025 36.4493552,3.07361128 C36.0625808,3.15349585 35.8301387,3.36734476 35.4383801,3.93044663 C35.3970084,3.99004599 35.3970084,3.99004599 35.3549004,4.05074462 C35.3288703,4.08819535 35.3071443,4.11924937 35.2863714,4.14862444 C35.3491109,4.18691397 35.4696734,4.2202036 35.6313082,4.22414324 C36.4498503,4.24417534 37.1062439,4.24782626 38.5850504,4.24673299 C38.7629498,4.24660147 38.7629546,4.24660147 38.9409456,4.24651295 C39.784415,4.24613687 40.4590975,4.24678283 41.9771276,4.24894625 C42.701648,4.2499788 43.0236863,4.25040341 43.4261739,4.25080537 C46.2691389,4.2536446 48.19798,4.24732145 50.1473577,4.22363336 C51.0999655,4.21194274 51.9941483,4.18090238 53.493448,4.11466042 C53.6859518,4.10613332 53.6859518,4.10613332 53.8785509,4.09755821 C55.3679986,4.03124345 56.0309667,4.0051008 56.861154,3.98503305 C57.3292512,3.97374123 57.8589405,4.13506082 58.2416184,4.40427635 C58.8086998,4.80264663 59.0960765,5.15902864 58.9828331,5.71949697 C58.7450704,6.36326667 57.9474228,6.67079792 57.361003,6.56608006 C56.2523683,6.36766024 55.353931,6.35731858 53.3174511,6.44761651 C52.0156495,6.50533865 51.4349156,6.51846623 50.7029227,6.48723926 C49.0965293,6.41877605 47.5494715,6.38537171 45.0983808,6.35540182 C44.8602212,6.35248981 44.6699659,6.35024079 44.2407266,6.34522474 C43.6481762,6.33830024 43.3843003,6.33514819 43.0548512,6.33095686 C42.6208853,6.32550608 42.2707159,6.33585537 41.4779784,6.37040236 C40.9813945,6.39204316 40.7596606,6.40051998 40.4812171,6.40670165 C40.1782609,6.41341934 39.8629258,6.41285373 39.5168822,6.40593104 C39.1629966,6.39885147 38.8812419,6.38890156 38.2478376,6.36330409 C36.2247793,6.2815472 35.3315837,6.29376255 34.2271269,6.48761486 C33.4775943,6.61894322 33.0959695,6.95065854 32.6250458,7.80860818 C32.404816,8.10824499 32.225226,8.37110993 32.0409903,8.66299016 C31.8446299,8.97407927 31.7560348,9.12504607 31.3538938,9.82286679 C30.9743924,10.4814018 30.7530196,10.8443899 30.4827389,11.2314555 C29.7143688,12.3919342 29.2101227,13.6417749 28.9851785,14.9639116 C28.9121873,15.3916502 29.1106713,15.6007094 29.5788833,15.56645 C30.4642363,15.5016463 31.2471033,15.3815023 31.957916,15.1890293 C33.0590842,14.8914415 33.9626432,14.6287821 35.896139,14.0529989 C36.8867434,13.7579986 37.3062973,13.633703 37.8288629,13.481288 C38.4859972,13.2895649 39.0145144,13.1366399 40.1939452,12.7963266 C43.0701187,11.9664292 44.3677095,11.5857228 45.945891,11.1002037 C46.1298522,11.043761 46.387292,10.9563214 46.779097,10.8188649 C46.8894153,10.7801241 47.1877696,10.6750115 47.262101,10.6489221 C47.4245497,10.5919048 47.5421579,10.5511429 47.6396444,10.5182753 C47.9282035,10.4213899 48.2363639,10.3432049 48.5732017,10.2781022 C49.376205,10.1216873 50.3360615,10.4595992 50.7044121,11.1125845 C50.7589408,11.2092566 50.8124845,11.2864519 50.875404,11.3635002 C50.9043786,11.3989812 51.0216832,11.5325853 51.050974,11.5686285 C51.3030768,11.4362879 51.5566253,11.2780241 51.6569268,11.2285923 C51.9681203,11.0759437 52.5052065,11.1662471 52.8345505,11.3222522 C53.1583666,11.4754299 53.4158572,11.9312901 53.4013166,12.2925083 C53.3887549,12.6044571 53.3318243,12.848191 53.1832247,13.3411111 C53.1586542,13.4225449 53.147669,13.4591251 53.1351663,13.5014789 C53.099007,13.624266 53.0626244,13.7141037 52.9793899,13.9016631 C52.8970985,14.0872503 52.8662229,14.1678254 52.8472367,14.2510522 C52.7007937,14.8944862 52.887811,15.1414654 53.4186189,15.0472615 C54.6227209,14.8341567 55.8349796,14.4678471 56.9751727,13.974636 C57.5858775,13.7101593 58.0578217,13.4365596 59.1088012,12.7721555 C59.5793193,12.4747053 59.7904696,12.3433684 60.0576354,12.1851908 C60.1024904,12.1586219 60.1417038,12.1325464 60.2307956,12.0710507 C60.6491493,11.78232 60.887599,11.6817649 61.2680127,11.7546379 C61.9446212,11.8848638 62.2551102,12.6500978 61.9413556,13.2558957 C61.8078295,13.5129646 61.6595549,13.7083133 61.3546606,14.0636351 C61.2948406,14.1332663 61.266339,14.1664979 61.2369986,14.201008 C61.0635454,14.4084694 60.9682218,14.5084462 60.7678698,14.708983 C60.468471,15.0086839 60.3495769,15.1425473 60.2467587,15.3088102 C60.0878126,15.5656888 60.3034223,15.9114722 60.6202599,15.8922824 C61.0668895,15.8649884 61.5556894,15.7435915 62.043634,15.5470871 C62.5122966,15.3586542 62.8863571,15.1956159 63.7216889,14.8219303 C64.7325855,14.3697096 65.1912389,14.1720768 65.7666436,13.9513685 C66.2971883,13.7475756 66.6770008,13.4883787 67.4622538,12.850715 C67.7997853,12.5766069 67.9484979,12.4586936 68.1329807,12.3220823 C68.810483,11.8206017 69.5755925,11.3653203 70.4441801,10.9328788 C70.8151546,10.7487071 71.3599182,10.7658926 71.7007758,10.9929143 C72.4314047,11.4790061 72.2782902,12.1918345 71.6678372,12.7256992 C71.5346937,12.8419935 71.4142497,12.9479968 71.1975289,13.1393056 C70.2048025,14.0156571 69.7616536,14.3921427 69.1952615,14.8217144 C68.9182275,15.0317606 68.6786419,15.1834774 68.1673442,15.4868698 C67.528272,15.8660614 67.2627739,16.0400501 66.9790712,16.2858436 C66.5819594,16.6300529 66.2905109,16.9497012 65.6530805,17.7053885 C65.3659369,18.0458034 65.2367742,18.1966753 65.0702448,18.382739 C64.9522858,18.5143396 64.8415453,18.6378 64.6566036,18.8439233 L64.5738804,18.9361201 C64.0156897,19.5582378 63.7406723,19.8652975 63.4180493,20.2273005 C63.0677479,20.6201665 62.7964751,20.9294825 62.5385103,21.2321661 C62.5037483,21.2729375 62.4729312,21.3154944 62.4080433,21.4104974 C62.2479851,21.6448497 62.1648856,21.7479694 62.0201965,21.8577 C61.2473067,22.4445003 60.6816825,22.99673 59.4773949,24.2756339 C58.06884,25.7714609 57.404341,26.4073201 56.4508655,27.074489 C56.1279873,27.3007872 55.8841379,27.6170015 55.4638742,28.2966521 C55.4114051,28.3816312 55.4114051,28.3816312 55.3584977,28.4673084 C55.2607225,28.6253975 55.1922912,28.7337339 55.1216455,28.8408505 C55.033595,28.974475 55.0778506,29.0986674 55.2966234,29.2421417 C55.9866813,29.6942981 56.2738653,30.1191394 56.0323898,30.8139862 C55.8073915,31.4599319 55.2804329,31.8180857 54.5666451,31.8927449 C54.4811988,31.901652 54.4105632,31.9111491 54.2488292,31.9345206 C53.8772766,31.9881995 53.7025426,32.005567 53.4791767,31.9985019 C52.5653572,31.9808547 52.1694289,31.8356982 51.8832845,31.203665 C51.4843162,30.3223426 51.461482,29.7643457 52.0336282,29.1444411 C52.8121325,28.3003563 53.4413295,27.6093186 54.8152145,26.0937846 C55.9409157,24.8520228 56.4429056,24.2998094 57.0581132,23.6284936 C57.8296382,22.7864775 58.5139592,22.0612234 59.8380881,20.673167 C60.1695047,20.3256409 60.4415842,20.0442544 61.0346382,19.4337978 C61.7753484,18.6713522 62.1025016,18.3322644 62.5002661,17.9115012 C62.5301695,17.8798538 62.558242,17.8487583 62.5866008,17.815605 C62.478691,17.8550743 62.3524012,17.9026805 62.166786,17.9732823 Z M48.6688044,13.7086667 L48.6728014,13.6917302 C48.7381423,13.4145704 48.7418576,13.3045353 48.6711488,13.1147717 C48.6283451,12.9994455 48.5951669,12.9652561 48.4080403,12.8740165 C48.2302671,12.835888 47.6700964,12.9044387 46.9837979,13.0855988 C45.7420623,13.4120776 44.7505612,13.8847474 44.0904224,14.3826861 C43.9996451,14.451024 44.0037564,14.762486 44.111277,14.8178401 C44.889971,15.2456361 45.683262,15.3678039 46.3567899,15.1300495 C46.425085,15.1059375 46.4898245,15.0818221 46.5516598,15.0575009 C46.7936808,14.9623086 46.9898415,14.8653207 47.2171316,14.7326733 C47.2316801,14.7241827 47.9936979,14.2543012 48.3185467,14.0721887 C48.3640635,14.045236 48.4473887,13.9842623 48.5291172,13.901637 C48.589138,13.8409576 48.635847,13.7796061 48.6657116,13.7217711 C48.6665677,13.7181415 48.6675683,13.713903 48.6688044,13.7086667 Z M13.1278583,17.6041771 C12.3489253,17.2184483 11.8233338,16.6748061 11.5404442,15.9063049 C11.3173733,15.2998688 11.5067244,15.3766378 10.9106404,15.6644543 C10.3025484,15.9578679 9.81723474,16.2056526 8.7374846,16.7672458 C7.98903683,17.1565241 7.65712124,17.3276898 7.24018679,17.5372167 C6.86439185,17.7261968 6.55750864,17.8735418 5.88406329,18.1917529 C5.35045525,18.4438886 5.11721524,18.5551511 4.82945009,18.696333 C4.59792618,18.8097912 4.41145154,18.9049871 3.99734243,19.1192687 C3.16276612,19.5511166 2.78172523,19.7380933 2.29606208,19.9396094 C1.86888724,20.1169361 1.33700847,20.1581326 0.808974134,20.0859589 C0.408331933,20.031573 0.0162688927,19.4973002 0.000574123585,19.0899877 C-0.0147542005,18.7162686 0.279070032,18.2684427 0.616003084,18.0733398 C1.06890329,17.8113276 2.55493165,17.0616387 2.99247473,16.8788832 C3.49139544,16.6708849 3.83746903,16.5150448 4.23321094,16.324145 C4.27280001,16.3050252 4.27280001,16.3050252 4.31237633,16.2858316 C4.38042746,16.2527985 4.75716561,16.0684362 4.87833199,16.0097436 C5.12389743,15.8907927 5.3569872,15.7803653 5.62355607,15.6574557 C6.65278795,15.1830334 7.60759778,14.7044542 9.46774948,13.7474426 C10.3391177,13.2994491 11.0640009,12.9152701 11.8905003,12.4660981 C11.9627841,12.4267985 11.9627841,12.4267985 12.0350242,12.3874624 C12.2505441,12.2700659 13.9276062,11.350222 14.5347103,11.0205027 C14.6962639,10.9327103 14.894302,10.8338466 15.1622037,10.7056902 C15.3110824,10.634471 15.8516837,10.379809 15.8932971,10.3600857 C16.0045936,10.307335 16.1021468,10.2607132 16.1940481,10.2162725 C16.6685818,9.98680241 16.9999481,9.81104358 17.2242682,9.66436732 C18.0916152,9.09774485 19.4535328,9.299445 19.9308034,10.1645665 C19.9566307,10.2113371 19.9842369,10.2603365 20.0151305,10.3143511 C20.0519949,10.3788049 20.0470985,10.370365 20.1583807,10.5617504 C20.735631,11.5545176 20.9433168,12.0912264 20.8980131,12.8613891 C20.8885971,13.0218165 20.8977312,13.160141 20.9325019,13.4845027 C20.9400853,13.5552431 20.9434898,13.5875183 20.9475379,13.6278408 C20.9602449,13.7544105 20.9681625,13.8560745 20.9721286,13.9563293 C21.0049823,14.7792508 20.9603387,14.7454467 21.7604474,14.5534712 C22.5750065,14.357992 23.4201185,14.1603425 24.4811732,13.9160464 C24.4988003,13.9119954 24.5045466,13.9104941 24.5645928,13.8944551 C24.8522098,13.8216523 25.0063752,13.8121458 25.1903693,13.9199488 C25.1939882,13.9220747 25.3265717,13.9991995 25.3676747,14.0236994 C25.7108014,14.2282238 25.9109375,14.3958913 26.0297961,14.6562946 C26.1965438,15.0191605 25.9492573,15.6297973 25.6124901,15.8524466 C25.1705132,16.1449313 24.677857,16.3738894 24.1862736,16.5103907 C22.3495256,17.0215108 20.4772429,17.5158735 18.5644627,17.9956607 C18.1504013,18.099548 17.8182197,18.1602432 17.0733909,18.2797644 C16.7432897,18.3327366 16.5935472,18.3574716 16.4144506,18.3894983 C15.2377019,18.4002128 14.1972289,18.1330176 13.1278583,17.6041771 Z M16.471977,15.5032336 C16.9787979,15.3858381 17.1858515,15.3207257 17.3879347,15.1966727 C18.5802939,14.4649896 18.8328703,13.6756239 18.3493564,12.2051239 C18.1807908,11.6921113 18.2633339,11.7389454 17.8798623,11.914693 C16.9527556,12.3399222 16.2123305,12.7124022 14.5858033,13.5555993 C14.5419537,13.5783312 14.5419537,13.5783312 14.4980962,13.6010664 C14.2085373,13.7511669 14.0367779,13.8400589 13.8532676,13.9346648 C13.7416501,13.992434 13.6306824,14.095301 13.5727088,14.1935424 C13.6290135,14.2455006 13.6832624,14.2961306 13.7522746,14.3608948 C13.7908825,14.3971427 13.7908825,14.3971427 13.8292931,14.43322 C14.7629854,15.3099684 15.246863,15.6096237 16.0079437,15.6190374 C16.1298692,15.5839385 16.2479521,15.5551248 16.471977,15.5032336 Z" id="path-3"></path>
    </defs>
    <g id="desktop" stroke="none" stroke-width="1" fill="none" fill-rule="evenodd">
        <g id="teaser-desktop-#1" transform="translate(-648.000000, -2302.000000)" fill-rule="nonzero">
            <g id="foot" transform="translate(0.000000, 2142.000000)">
                <g id="logo/color" transform="translate(648.000000, 160.000000)">
                    <g id="logo">
                        <use fill="url(#linearGradient-1)" xlink:href="#path-3"></use>
                        <use fill="url(#linearGradient-2)" style="mix-blend-mode: soft-light;" xlink:href="#path-3"></use>
                    </g>
                </g>
            </g>
        </g>
    </g>
</svg>